<?xml version="1.0" standalone="no"?>
<!DOCTYPE svg PUBLIC "-//W3C//DTD SVG 20010904//EN"
 "http://www.w3.org/TR/2001/REC-SVG-20010904/DTD/svg10.dtd">
<svg version="1.0" xmlns="http://www.w3.org/2000/svg"
 width="764.000000pt" height="766.000000pt" viewBox="0 0 764.000000 766.000000"
 preserveAspectRatio="xMidYMid meet">

<g transform="translate(0.000000,766.000000) scale(0.100000,-0.100000)"
fill="#000000" stroke="none">
<path d="M3628 7654 c-4 -3 -57 -10 -120 -15 -104 -9 -160 -15 -306 -35 -29
-3 -55 -11 -58 -15 -3 -5 -19 -9 -36 -9 -17 0 -47 -4 -67 -9 -20 -5 -61 -15
-91 -21 -56 -12 -169 -45 -205 -59 -11 -5 -42 -15 -70 -24 -79 -24 -226 -77
-272 -98 -23 -10 -45 -19 -48 -19 -15 0 -288 -138 -403 -204 -182 -104 -313
-190 -463 -304 -19 -15 -54 -41 -78 -59 -40 -30 -236 -208 -291 -264 -68 -69
-215 -232 -240 -266 -16 -21 -62 -83 -104 -138 -114 -152 -129 -174 -242 -360
-65 -106 -180 -329 -215 -417 -11 -29 -30 -75 -41 -103 -112 -283 -197 -606
-244 -931 -24 -171 -30 -640 -10 -840 63 -635 270 -1210 631 -1759 250 -380
643 -781 1001 -1022 492 -332 1105 -573 1639 -643 50 -6 119 -16 155 -20 119
-16 461 -22 623 -11 662 46 1293 261 1840 630 383 258 755 620 1021 995 339
477 560 1030 651 1631 90 593 41 1185 -145 1745 -199 599 -493 1078 -935 1524
-224 226 -531 465 -745 580 -30 16 -62 35 -70 42 -16 13 -374 194 -385 194 -3
0 -25 9 -48 19 -86 39 -196 80 -337 124 -127 40 -188 55 -375 97 -83 19 -235
39 -443 60 -109 11 -465 14 -474 4z m552 -379 c695 -80 1362 -381 1905 -862
50 -43 90 -87 90 -96 0 -10 -49 -67 -109 -126 l-109 -109 -91 82 c-50 45 -143
120 -206 168 -515 384 -1045 584 -1662 628 -464 33 -1053 -93 -1513 -322 -579
-289 -1062 -743 -1369 -1285 -202 -358 -354 -826 -391 -1203 -12 -122 8 -110
-175 -110 l-160 0 0 63 c0 137 65 487 132 707 165 551 471 1054 890 1467 158
156 220 208 393 334 364 265 721 439 1140 557 136 39 379 87 505 101 52 6 109
13 125 15 92 10 483 4 605 -9z m-200 -710 c315 -66 576 -298 674 -601 l17 -51
77 -11 c156 -22 250 -69 363 -181 41 -42 89 -100 105 -129 23 -43 33 -52 49
-47 11 3 52 13 90 21 88 20 253 13 341 -14 230 -72 419 -266 481 -493 16 -59
18 -160 21 -1259 2 -657 0 -1259 -3 -1338 l-7 -142 -55 -83 c-95 -142 -88
-150 -88 116 l0 232 -142 3 -143 3 0 -399 0 -398 -57 -55 c-60 -58 -206 -179
-215 -179 -3 0 -6 6 -5 13 0 6 -1 110 -1 230 l-2 217 -142 0 -143 0 4 -271 c2
-149 0 -294 -3 -323 l-7 -52 -69 -38 -70 -37 0 185 0 186 -140 0 -140 0 0
-239 c0 -179 -3 -241 -12 -249 -31 -24 -264 -90 -276 -77 -4 4 -6 184 -5 401
l2 394 -160 0 -159 0 0 -434 0 -434 -22 -5 c-13 -3 -71 -9 -130 -13 l-108 -7
0 172 0 171 -90 0 -90 0 0 -171 0 -171 -87 6 c-49 4 -105 9 -125 12 l-38 6 0
584 0 584 -150 0 -150 0 0 -551 0 -551 -32 7 c-18 4 -81 23 -140 42 l-108 34
0 250 0 249 -135 0 -135 0 0 -185 c0 -141 -3 -185 -12 -185 -7 0 -40 15 -73
34 l-60 33 -3 401 -2 402 -145 0 -145 0 0 -311 0 -311 -30 19 c-16 10 -79 61
-140 112 l-110 94 0 283 0 284 -150 0 -150 0 0 -121 c0 -66 -4 -118 -8 -115
-5 3 -43 56 -85 119 l-77 114 0 1299 c0 1078 3 1310 14 1365 70 329 363 570
693 569 67 0 156 -14 228 -35 16 -5 29 8 70 71 61 93 144 170 233 217 73 38
120 53 225 71 l69 11 23 72 c89 281 360 516 665 578 89 18 244 18 330 0z
m2537 -607 c362 -441 627 -1053 713 -1649 11 -77 20 -164 20 -194 l0 -55 -159
0 -159 0 -6 28 c-3 15 -8 50 -12 77 -14 111 -46 285 -69 378 -56 219 -139 445
-234 642 -105 215 -189 352 -345 561 -25 33 -46 65 -46 71 0 11 217 213 230
213 4 0 34 -33 67 -72z m-5354 -1504 c50 -50 44 -124 -12 -157 -101 -60 -204
71 -122 154 39 39 97 41 134 3z m-19 -425 c23 -11 56 -62 56 -89 0 -21 -30
-69 -51 -81 -42 -22 -91 -14 -121 20 -74 83 14 196 116 150z m5442 -7 c50 -40
57 -95 18 -141 -21 -25 -33 -31 -66 -31 -50 0 -74 13 -94 51 -44 87 67 182
142 121z m664 -375 c0 -39 -7 -131 -15 -202 -95 -817 -477 -1568 -1096 -2154
l-76 -72 -84 97 c-46 53 -92 107 -103 121 l-18 24 148 152 c453 464 745 1026
868 1672 22 117 32 188 51 378 l6 57 160 0 159 0 0 -73z m-6527 -56 c26 -364
148 -802 320 -1146 170 -343 340 -581 591 -830 159 -159 243 -229 401 -337
423 -289 878 -472 1368 -550 123 -20 179 -23 422 -23 290 0 374 8 605 55 376
77 763 236 1071 440 l55 36 65 -75 c35 -42 81 -97 102 -123 l37 -46 -82 -55
c-472 -313 -893 -469 -1478 -549 -143 -19 -592 -16 -755 5 -400 53 -770 165
-1117 337 -574 286 -993 647 -1336 1154 -350 517 -552 1089 -608 1724 l-6 72
169 0 170 0 6 -89z m439 -8 c69 -61 29 -173 -62 -173 -84 0 -129 90 -79 154
12 15 31 32 43 36 26 11 76 2 98 -17z m5441 -14 c38 -41 37 -90 -2 -130 -22
-22 -39 -29 -68 -29 -50 0 -80 22 -94 69 -14 48 8 96 54 117 42 18 76 10 110
-27z"/>
<path d="M3750 6398 c-85 -43 -112 -125 -69 -209 11 -22 36 -49 55 -61 l34
-20 0 -161 c0 -89 -4 -167 -8 -173 -4 -6 -23 -14 -42 -18 -95 -17 -221 -110
-274 -200 -30 -52 -56 -138 -56 -188 0 -30 -5 -41 -22 -48 -20 -9 -119 -32
-338 -81 -45 -10 -46 -9 -91 33 -68 66 -143 83 -232 52 -57 -19 -123 -90 -133
-141 -4 -19 -12 -37 -18 -39 -6 -2 -141 -30 -301 -63 -259 -52 -291 -56 -299
-42 -57 98 -187 115 -263 35 -90 -95 -20 -256 111 -256 61 0 121 33 145 81
l20 38 283 56 c301 61 328 64 328 44 0 -23 61 -87 103 -109 53 -28 138 -29
187 -4 76 39 117 96 129 174 l6 46 175 42 c96 24 182 43 191 44 10 0 29 -27
53 -74 78 -160 242 -256 411 -243 38 3 95 15 125 26 107 40 211 143 248 244 9
26 22 47 29 47 6 0 85 -18 175 -39 90 -22 172 -41 183 -43 16 -3 21 -14 27
-57 13 -107 102 -186 208 -185 32 1 70 8 90 19 44 22 99 73 111 103 5 12 16
22 26 22 33 0 589 -106 604 -116 5 -3 9 -11 9 -19 0 -25 65 -83 106 -94 107
-29 216 66 199 174 -13 90 -110 152 -197 126 -41 -13 -90 -52 -99 -80 -4 -12
-49 -6 -255 33 -137 26 -275 52 -306 58 l-56 10 -31 63 c-36 73 -81 108 -159
126 -76 18 -148 -6 -197 -64 l-35 -42 -163 38 c-89 22 -178 43 -197 48 -35 8
-36 9 -48 86 -7 43 -24 102 -38 131 -53 109 -190 215 -293 229 l-41 6 0 179
c0 176 0 179 23 187 30 12 53 39 72 85 29 68 -6 150 -79 185 -54 27 -71 26
-126 -1z"/>
<path d="M2178 4447 c-63 -51 -187 -153 -276 -226 l-162 -135 2 -165 3 -166
85 -32 c47 -18 270 -101 495 -186 l410 -154 3 -100 3 -101 -52 -41 c-28 -22
-57 -41 -63 -41 -6 0 -49 15 -96 34 -47 19 -114 46 -150 59 -242 92 -263 101
-289 135 -14 19 -36 46 -47 60 l-22 26 -28 -34 c-16 -19 -77 -88 -136 -154
-59 -66 -104 -124 -100 -127 17 -17 895 -349 922 -349 9 0 95 58 191 128 l174
128 3 296 2 296 -77 30 c-43 16 -127 48 -188 70 -137 51 -664 248 -688 257
-10 4 -17 11 -15 16 2 4 63 55 136 112 l133 105 97 -37 c53 -21 121 -46 150
-56 30 -9 68 -29 85 -44 18 -15 54 -43 80 -62 47 -32 49 -33 63 -15 13 19 87
98 193 208 l55 57 -50 21 c-27 12 -173 68 -324 125 -151 57 -305 115 -342 129
l-66 25 -114 -92z"/>
<path d="M3340 3552 c0 -478 2 -871 4 -873 2 -2 74 -3 160 -1 l156 3 0 304 c0
168 3 305 8 305 4 0 34 -42 66 -93 33 -50 122 -187 199 -303 l139 -211 186 -6
c102 -4 187 -5 189 -3 6 5 -285 456 -570 885 l-36 55 36 50 c20 28 150 210
290 404 l252 352 -197 0 -198 0 -72 -102 c-165 -239 -255 -364 -273 -383 -19
-20 -20 -17 -17 233 l3 252 -162 0 -163 0 0 -868z"/>
<path d="M4680 3514 l0 -906 23 14 c12 8 45 27 72 43 28 15 89 53 138 82 l87
55 0 243 0 243 83 74 c45 41 116 102 157 136 l74 60 86 -77 c172 -156 254
-222 270 -218 12 3 245 153 269 173 2 2 -12 16 -30 31 -66 55 -333 285 -387
333 l-55 49 61 83 c34 46 126 174 206 286 l145 202 -197 0 -197 0 -240 -341
-240 -341 -3 341 -2 341 -160 0 -160 0 0 -906z"/>
<path d="M5824 3011 c-23 -10 -53 -34 -67 -53 -26 -33 -51 -115 -43 -140 2 -7
7 -25 10 -40 8 -34 50 -84 88 -104 39 -20 118 -20 159 1 94 48 132 128 104
222 -33 110 -146 161 -251 114z"/>
<path d="M1685 2745 c-117 -41 -152 -197 -63 -284 83 -81 225 -55 278 49 25
49 25 93 1 145 -22 48 -44 69 -94 90 -44 18 -70 18 -122 0z"/>
<path d="M2295 2573 c-83 -20 -135 -85 -135 -167 0 -114 96 -184 206 -151 105
31 152 131 105 223 -24 47 -50 70 -98 88 -40 14 -46 14 -78 7z"/>
<path d="M5285 2483 c-35 -9 -77 -45 -91 -79 -8 -20 -14 -69 -14 -124 0 -85 1
-90 21 -90 12 0 34 11 51 25 22 19 41 25 74 25 47 0 104 -23 104 -41 0 -6 12
-9 28 -7 l27 3 0 95 c0 76 -4 101 -20 128 -32 54 -111 82 -180 65z"/>
<path d="M4160 2174 l0 -154 29 0 c20 0 30 6 34 19 7 28 65 61 106 61 27 0 42
-9 72 -40 65 -68 69 -61 69 105 0 80 1 148 3 153 1 4 -69 7 -155 8 l-158 1 0
-153z"/>
<path d="M4770 1989 l0 -192 53 7 c28 3 91 6 140 6 l87 0 0 185 0 185 -140 0
-140 0 0 -191z"/>
<path d="M2620 1998 l0 -149 133 3 132 3 0 145 0 145 -132 0 -133 1 0 -148z"/>
<path d="M3742 2000 c-36 -22 -52 -54 -52 -105 0 -42 48 -101 90 -110 42 -9
114 25 134 64 57 110 -64 217 -172 151z"/>
<path d="M3720 1621 c0 -50 3 -92 8 -94 4 -2 44 -2 90 1 l82 4 0 89 0 89 -90
0 -90 0 0 -89z"/>
</g>
</svg>
